<svg width="2301" height="1980" viewBox="0 0 2301 1980" fill="none" xmlns="http://www.w3.org/2000/svg">
<g clip-path="url(#clip0_304_468)">
<rect width="2301" height="1980" fill="white"/>
<g filter="url(#filter0_d_304_468)">
<path d="M2368.09 397.243C2396.45 444.634 2388.86 547.383 2341.47 575.742C2294.08 604.101 2195.83 561.189 2167.47 513.797C2139.11 466.406 2181.11 415.319 2228.51 386.96C2275.9 358.601 2339.73 349.851 2368.09 397.243Z" fill="url(#paint0_linear_304_468)"/>
<path d="M2351.29 407.141C2365.41 430.732 2372.69 466.982 2371.46 500.338C2370.84 517.003 2368.1 532.889 2363.06 546.065C2358.02 559.249 2350.71 569.633 2341.01 575.436C2331.32 581.234 2318.49 582.693 2304.13 580.784C2289.79 578.877 2274.02 573.621 2258.58 566.124C2227.67 551.118 2198.24 527.241 2184.13 503.657C2170.08 480.173 2171.29 457.111 2180.94 436.93C2190.61 416.704 2208.76 399.359 2228.56 387.512C2248.33 375.678 2272.03 368.846 2294.26 370.845C2316.45 372.841 2337.22 383.633 2351.29 407.141Z" fill="url(#paint1_linear_304_468)" stroke="url(#paint2_linear_304_468)" stroke-width="2"/>
<path d="M2254.16 354.729C2253.46 369.519 2242.02 380.993 2227.23 380.292C2212.44 379.591 2201.02 367.033 2201.72 352.243C2202.42 337.453 2223.61 292.355 2231.96 280.404C2238.24 294.122 2254.86 339.939 2254.16 354.729Z" fill="url(#paint3_linear_304_468)"/>
<path d="M2245.82 354.392C2245.47 361.713 2243.26 368.223 2239.89 372.828C2236.51 377.431 2232 380.097 2227.01 379.861C2222.01 379.623 2217.57 376.526 2214.45 371.61C2211.33 366.695 2209.55 359.999 2209.9 352.689C2210.07 349.043 2211.17 343.472 2212.82 336.948C2214.47 330.435 2216.67 323.006 2219.03 315.657C2223.49 301.814 2228.53 288.299 2231.62 281.758C2233.78 288.996 2237.36 302.965 2240.38 317.07C2241.98 324.54 2243.43 332.042 2244.43 338.598C2245.44 345.163 2245.99 350.745 2245.82 354.392Z" fill="url(#paint4_linear_304_468)" stroke="url(#paint5_linear_304_468)"/>
<path d="M2203.4 374.262C2209.83 375.712 2213.98 381.613 2212.53 388.041C2211.08 394.469 2204.69 398.505 2198.26 397.055C2191.83 395.604 2173.7 382.829 2169.11 378.246C2175.61 376.554 2196.97 372.812 2203.4 374.262Z" fill="url(#paint6_linear_304_468)"/>
<path d="M2202.55 378.162C2205.69 378.87 2208.32 380.317 2210.03 382.107C2211.74 383.895 2212.51 385.988 2212.05 388.043C2211.58 390.104 2209.97 391.751 2207.63 392.715C2205.29 393.679 2202.28 393.937 2199.15 393.231C2197.59 392.881 2195.26 391.981 2192.53 390.754C2189.81 389.531 2186.73 387.996 2183.69 386.393C2178.38 383.587 2173.24 380.588 2170.45 378.696C2173.93 378.323 2179.87 377.887 2185.84 377.667C2189.24 377.542 2192.63 377.487 2195.57 377.554C2198.53 377.622 2200.99 377.811 2202.55 378.162Z" fill="url(#paint7_linear_304_468)" stroke="url(#paint8_linear_304_468)"/>
<g filter="url(#filter1_i_304_468)">
<rect x="2204.32" y="461.448" width="10" height="17" rx="5" transform="rotate(-30.8962 2204.32 461.448)" fill="url(#paint9_linear_304_468)"/>
</g>
<g filter="url(#filter2_i_304_468)">
<rect x="2292.71" y="408.559" width="10" height="17" rx="5" transform="rotate(-30.8962 2292.71 408.559)" fill="url(#paint10_linear_304_468)"/>
</g>
<g filter="url(#filter3_i_304_468)">
<rect x="2267.94" y="466.496" width="10" height="17" rx="5" transform="rotate(-30.8962 2267.94 466.496)" fill="url(#paint11_linear_304_468)"/>
</g>
<g filter="url(#filter4_i_304_468)">
<rect x="2246.43" y="531.812" width="10" height="17" rx="5" transform="rotate(-30.8962 2246.43 531.812)" fill="url(#paint12_linear_304_468)"/>
</g>
</g>
<g filter="url(#filter5_d_304_468)">
<path d="M52.8229 1492.75C-1.48627 1502.79 -95.1244 1459.81 -105.159 1405.5C-115.194 1351.19 -40.6894 1274.1 13.6198 1264.07C67.929 1254.03 101.144 1311.22 111.179 1365.53C121.214 1419.84 107.132 1482.72 52.8229 1492.75Z" fill="url(#paint13_linear_304_468)"/>
<path d="M49.4117 1473.55C22.3775 1478.55 -14.1351 1472.72 -44.9626 1459.92C-60.3651 1453.53 -74.2955 1445.41 -84.8835 1436.09C-95.4786 1426.77 -102.658 1416.29 -104.711 1405.18C-106.763 1394.07 -103.651 1381.54 -96.8508 1368.75C-90.0571 1355.97 -79.6304 1343.04 -67.2147 1331.18C-42.363 1307.45 -9.71791 1288.21 17.3081 1283.22C44.2206 1278.24 65.4084 1287.43 80.9534 1303.52C96.5327 1319.64 106.452 1342.7 110.644 1365.39C114.831 1388.05 112.963 1412.64 103.33 1432.78C93.7137 1452.88 76.3515 1468.57 49.4117 1473.55Z" fill="url(#paint14_linear_304_468)" stroke="url(#paint15_linear_304_468)" stroke-width="2"/>
<path d="M132.43 1400.82C118.815 1395 112.054 1380.28 117.874 1366.66C123.693 1353.05 139.447 1346.73 153.062 1352.55C166.678 1358.36 201.542 1393.97 209.827 1405.96C194.78 1407.06 146.045 1406.64 132.43 1400.82Z" fill="url(#paint16_linear_304_468)"/>
<path d="M135.656 1393.12C128.917 1390.24 123.586 1385.9 120.449 1381.13C117.313 1376.36 116.39 1371.2 118.355 1366.6C120.322 1362 124.774 1358.92 130.47 1357.71C136.165 1356.51 143.058 1357.18 149.788 1360.06C153.145 1361.49 157.984 1364.46 163.52 1368.29C169.048 1372.11 175.243 1376.76 181.304 1381.54C192.721 1390.55 203.626 1399.99 208.679 1405.16C201.14 1404.67 186.803 1403.14 172.528 1401.05C164.969 1399.95 157.433 1398.69 150.94 1397.34C144.437 1395.99 139.013 1394.56 135.656 1393.12Z" fill="url(#paint17_linear_304_468)" stroke="url(#paint18_linear_304_468)"/>
<path d="M131.84 1346.44C128.237 1351.96 121.261 1353.78 115.743 1350.18C110.225 1346.58 108.673 1339.18 112.275 1333.67C115.878 1328.15 134.177 1315.62 140.075 1312.91C139.393 1319.59 135.442 1340.92 131.84 1346.44Z" fill="url(#paint19_linear_304_468)"/>
<path d="M128.483 1344.28C126.724 1346.97 124.45 1348.93 122.174 1349.91C119.901 1350.89 117.671 1350.88 115.907 1349.73C114.138 1348.58 113.16 1346.48 113.072 1343.96C112.985 1341.43 113.794 1338.52 115.547 1335.83C116.419 1334.5 118.077 1332.62 120.18 1330.49C122.276 1328.37 124.79 1326.02 127.351 1323.73C131.834 1319.74 136.437 1315.97 139.187 1314.01C138.322 1317.4 136.655 1323.13 134.778 1328.79C133.71 1332.02 132.576 1335.22 131.486 1337.95C130.393 1340.7 129.355 1342.94 128.483 1344.28Z" fill="url(#paint20_linear_304_468)" stroke="url(#paint21_linear_304_468)"/>
<g filter="url(#filter6_i_304_468)">
<rect x="49.8162" y="1316.87" width="10" height="17" rx="5" transform="rotate(79.5315 49.8162 1316.87)" fill="url(#paint22_linear_304_468)"/>
</g>
<g filter="url(#filter7_i_304_468)">
<rect x="68.5308" y="1418.16" width="10" height="17" rx="5" transform="rotate(79.5315 68.5308 1418.16)" fill="url(#paint23_linear_304_468)"/>
</g>
<g filter="url(#filter8_i_304_468)">
<rect x="22.8801" y="1374.73" width="10" height="17" rx="5" transform="rotate(79.5315 22.8801 1374.73)" fill="url(#paint24_linear_304_468)"/>
</g>
</g>
<path d="M2341.02 916.048C2322.97 917.961 2305.89 905.974 2302.56 887.553C2299.23 869.132 2311.17 852.648 2329.22 850.735C2347.28 848.821 2407.7 866.551 2424.48 874.63C2409.7 884.974 2359.07 914.134 2341.02 916.048Z" fill="url(#paint25_linear_304_468)"/>
<path d="M2339.94 910.096C2322.06 911.992 2305.74 902.391 2303.04 887.456C2300.34 872.498 2312.47 858.727 2330.32 856.835C2334.77 856.363 2341.83 856.853 2350.22 857.97C2358.6 859.086 2368.25 860.82 2377.87 862.815C2396.36 866.656 2414.65 871.455 2423.32 874.666C2415.45 879.217 2399.47 887.385 2383.14 894.749C2374.66 898.572 2366.09 902.174 2358.52 904.94C2350.93 907.709 2344.39 909.625 2339.94 910.096Z" fill="url(#paint26_linear_304_468)" stroke="url(#paint27_linear_304_468)"/>
<path fill-rule="evenodd" clip-rule="evenodd" d="M2336.32 1101.73C2327.33 1084.76 2325.25 1063.42 2332.34 1043.49C2339.49 1023.4 2354.37 1009.19 2371.64 1003.5C2360.41 1004.89 2349.68 1009.46 2340.83 1017.37C2317.34 1038.36 2315.69 1075.26 2336.32 1101.73Z" fill="url(#paint28_linear_304_468)"/>
<path fill-rule="evenodd" clip-rule="evenodd" d="M2337.57 1102.79C2337.41 1102.5 2337.26 1102.21 2337.1 1101.91C2316.47 1075.44 2318.12 1038.54 2341.61 1017.55C2350.14 1009.92 2360.43 1005.4 2371.22 1003.84C2366.29 968.112 2342.71 933.542 2294.66 910.097C2235.22 787.55 2159.66 793.273 2098.15 848.246C2036.64 903.219 2022.29 1023.39 2114.79 1070.85C2148.82 1170.57 2265.47 1168.24 2326.99 1113.26C2330.72 1109.93 2334.25 1106.43 2337.57 1102.79Z" fill="url(#paint29_linear_304_468)"/>
<mask id="path-24-inside-1_304_468" fill="white">
<path fill-rule="evenodd" clip-rule="evenodd" d="M2337.35 1103.04C2336.97 1102.37 2336.6 1101.7 2336.24 1101.03C2315.61 1074.55 2317.26 1037.66 2340.75 1016.66C2349.48 1008.85 2360.06 1004.29 2371.14 1002.85C2365.93 967.555 2342.41 933.52 2294.92 910.402C2233.89 801.752 2170.93 809.221 2109.41 864.207C2047.88 919.194 2029.37 1026.83 2115 1071.19C2148.87 1170.75 2265.43 1168.27 2326.96 1113.29C2330.62 1110.02 2334.08 1106.6 2337.35 1103.04Z"/>
</mask>
<path fill-rule="evenodd" clip-rule="evenodd" d="M2337.35 1103.04C2336.97 1102.37 2336.6 1101.7 2336.24 1101.03C2315.61 1074.55 2317.26 1037.66 2340.75 1016.66C2349.48 1008.85 2360.06 1004.29 2371.14 1002.85C2365.93 967.555 2342.41 933.52 2294.92 910.402C2233.89 801.752 2170.93 809.221 2109.41 864.207C2047.88 919.194 2029.37 1026.83 2115 1071.19C2148.87 1170.75 2265.43 1168.27 2326.96 1113.29C2330.62 1110.02 2334.08 1106.6 2337.35 1103.04Z" fill="url(#paint30_linear_304_468)"/>
<path d="M2337.35 1103.04L2338.08 1103.71L2338.58 1103.17L2338.21 1102.54L2337.35 1103.04ZM2336.24 1101.03L2337.12 1100.56L2337.08 1100.48L2337.03 1100.41L2336.24 1101.03ZM2371.14 1002.85L2371.27 1003.84L2372.28 1003.71L2372.13 1002.7L2371.14 1002.85ZM2294.92 910.402L2294.05 910.891L2294.2 911.164L2294.48 911.301L2294.92 910.402ZM2115 1071.19L2115.95 1070.87L2115.82 1070.49L2115.46 1070.31L2115 1071.19ZM2338.21 1102.54C2337.84 1101.89 2337.47 1101.23 2337.12 1100.56L2335.35 1101.5C2335.72 1102.18 2336.09 1102.86 2336.48 1103.54L2338.21 1102.54ZM2337.03 1100.41C2316.67 1074.29 2318.37 1038.01 2341.42 1017.4L2340.09 1015.91C2316.15 1037.31 2314.54 1074.81 2335.45 1101.64L2337.03 1100.41ZM2341.42 1017.4C2349.99 1009.74 2360.38 1005.26 2371.27 1003.84L2371.01 1001.86C2359.74 1003.33 2348.98 1007.97 2340.09 1015.91L2341.42 1017.4ZM2294.48 911.301C2341.72 934.299 2364.99 968.079 2370.15 1003L2372.13 1002.7C2366.86 967.031 2343.09 932.741 2295.36 909.503L2294.48 911.301ZM2110.07 864.953C2140.76 837.524 2171.59 822.159 2202.19 826.929C2232.8 831.699 2263.58 856.661 2294.05 910.891L2295.79 909.912C2265.22 855.493 2234.02 829.865 2202.5 824.953C2170.99 820.042 2139.57 835.904 2108.74 863.462L2110.07 864.953ZM2115.46 1070.31C2073.03 1048.32 2056.42 1010.71 2058.02 971.724C2059.62 932.686 2079.5 892.279 2110.07 864.953L2108.74 863.462C2077.79 891.122 2057.65 932.025 2056.02 971.642C2054.39 1011.31 2071.34 1049.7 2114.54 1072.08L2115.46 1070.31ZM2326.29 1112.54C2295.74 1139.85 2251.5 1154.12 2210.73 1149.2C2170.01 1144.29 2132.75 1120.25 2115.95 1070.87L2114.06 1071.52C2131.13 1121.69 2169.08 1146.19 2210.49 1151.19C2251.85 1156.17 2296.65 1141.71 2327.62 1114.03L2326.29 1112.54ZM2336.61 1102.36C2333.37 1105.9 2329.92 1109.3 2326.29 1112.54L2327.62 1114.03C2331.31 1110.74 2334.8 1107.3 2338.08 1103.71L2336.61 1102.36Z" fill="url(#paint31_linear_304_468)" mask="url(#path-24-inside-1_304_468)"/>
<path d="M226.022 1835.05C207.97 1836.96 190.89 1824.97 187.562 1806.55C184.235 1788.13 196.172 1771.65 214.224 1769.73C232.277 1767.82 292.701 1785.55 309.484 1793.63C294.696 1803.97 244.075 1833.13 226.022 1835.05Z" fill="url(#paint32_linear_304_468)"/>
<path d="M224.939 1829.1C207.056 1830.99 190.741 1821.39 188.044 1806.46C185.342 1791.5 197.465 1777.73 215.318 1775.83C219.766 1775.36 226.828 1775.85 235.219 1776.97C243.595 1778.09 253.252 1779.82 262.865 1781.82C281.363 1785.66 299.648 1790.46 308.316 1793.67C300.452 1798.22 284.472 1806.39 268.137 1813.75C259.657 1817.57 251.088 1821.17 243.516 1823.94C235.932 1826.71 229.387 1828.62 224.939 1829.1Z" fill="url(#paint33_linear_304_468)" stroke="url(#paint34_linear_304_468)"/>
<path fill-rule="evenodd" clip-rule="evenodd" d="M221.319 2020.73C212.326 2003.76 210.252 1982.42 217.342 1962.49C224.491 1942.4 239.372 1928.19 256.638 1922.5C245.41 1923.89 234.677 1928.46 225.834 1936.37C202.339 1957.36 200.689 1994.26 221.319 2020.73Z" fill="url(#paint35_linear_304_468)"/>
<path fill-rule="evenodd" clip-rule="evenodd" d="M222.573 2021.79C222.413 2021.5 222.255 2021.21 222.099 2020.91C201.47 1994.44 203.119 1957.54 226.615 1936.55C235.143 1928.92 245.429 1924.4 256.222 1922.84C251.286 1887.11 227.709 1852.54 179.659 1829.1C120.219 1706.55 44.6566 1712.27 -16.8535 1767.25C-78.3637 1822.22 -92.7076 1942.39 -0.210083 1989.85C33.8162 2089.57 150.475 2087.24 211.985 2032.26C215.718 2028.93 219.251 2025.43 222.573 2021.79Z" fill="url(#paint36_linear_304_468)"/>
<mask id="path-30-inside-2_304_468" fill="white">
<path fill-rule="evenodd" clip-rule="evenodd" d="M222.346 2022.04C221.965 2021.37 221.596 2020.7 221.237 2020.03C200.607 1993.55 202.257 1956.66 225.752 1935.66C234.485 1927.85 245.062 1923.29 256.138 1921.85C250.926 1886.56 227.406 1852.52 179.918 1829.4C118.889 1720.75 55.9319 1728.22 -5.59328 1783.21C-67.1185 1838.19 -85.6311 1945.83 0.00483839 1990.19C33.8743 2089.75 150.432 2087.27 211.957 2032.29C215.615 2029.02 219.082 2025.6 222.346 2022.04Z"/>
</mask>
<path fill-rule="evenodd" clip-rule="evenodd" d="M222.346 2022.04C221.965 2021.37 221.596 2020.7 221.237 2020.03C200.607 1993.55 202.257 1956.66 225.752 1935.66C234.485 1927.85 245.062 1923.29 256.138 1921.85C250.926 1886.56 227.406 1852.52 179.918 1829.4C118.889 1720.75 55.9319 1728.22 -5.59328 1783.21C-67.1185 1838.19 -85.6311 1945.83 0.00483839 1990.19C33.8743 2089.75 150.432 2087.27 211.957 2032.29C215.615 2029.02 219.082 2025.6 222.346 2022.04Z" fill="url(#paint37_linear_304_468)"/>
<path d="M222.346 2022.04L223.083 2022.71L223.578 2022.17L223.213 2021.54L222.346 2022.04ZM221.237 2020.03L222.12 2019.56L222.079 2019.48L222.026 2019.41L221.237 2020.03ZM256.138 1921.85L256.268 1922.84L257.276 1922.71L257.128 1921.7L256.138 1921.85ZM179.918 1829.4L179.046 1829.89L179.199 1830.16L179.48 1830.3L179.918 1829.4ZM0.00483948 1990.19L0.951552 1989.87L0.822001 1989.49L0.464857 1989.31L0.00483948 1990.19ZM223.213 2021.54C222.838 2020.89 222.474 2020.23 222.12 2019.56L220.353 2020.5C220.717 2021.18 221.093 2021.86 221.479 2022.54L223.213 2021.54ZM222.026 2019.41C201.675 1993.29 203.367 1957.01 226.418 1936.4L225.086 1934.91C201.146 1956.31 199.54 1993.81 220.448 2020.64L222.026 2019.41ZM226.418 1936.4C234.993 1928.74 245.38 1924.26 256.268 1922.84L256.009 1920.86C244.744 1922.33 233.977 1926.97 225.086 1934.91L226.418 1936.4ZM179.48 1830.3C226.721 1853.3 249.992 1887.08 255.149 1922L257.128 1921.7C251.859 1886.03 228.091 1851.74 180.355 1828.5L179.48 1830.3ZM-4.92691 1783.95C25.764 1756.52 56.5866 1741.16 87.1942 1745.93C117.797 1750.7 148.584 1775.66 179.046 1829.89L180.79 1828.91C150.222 1774.49 119.017 1748.86 87.5022 1743.95C55.9929 1739.04 24.5747 1754.9 -6.25966 1782.46L-4.92691 1783.95ZM0.464857 1989.31C-41.97 1967.32 -58.5807 1929.71 -56.9805 1890.72C-55.378 1851.69 -35.5025 1811.28 -4.92691 1783.95L-6.25966 1782.46C-37.2093 1810.12 -57.3526 1851.03 -58.9788 1890.64C-60.6072 1930.31 -43.6563 1968.7 -0.455178 1991.08L0.464857 1989.31ZM211.291 2031.54C180.738 2058.85 136.503 2073.12 95.7299 2068.2C55.0128 2063.29 17.7515 2039.25 0.951552 1989.87L-0.941873 1990.52C16.1276 2040.69 54.08 2065.19 95.4904 2070.19C136.845 2075.17 181.651 2060.71 212.624 2033.03L211.291 2031.54ZM221.609 2021.36C218.367 2024.9 214.924 2028.3 211.291 2031.54L212.624 2033.03C216.306 2029.74 219.796 2026.3 223.083 2022.71L221.609 2021.36Z" fill="url(#paint38_linear_304_468)" mask="url(#path-30-inside-2_304_468)"/>
<g filter="url(#filter9_d_304_468)">
<path d="M2314.82 1878.18C2352.53 1918.54 2366.75 2020.58 2326.39 2058.28C2286.03 2095.99 2180.95 2074.73 2143.25 2034.37C2105.55 1994.02 2135.84 1935.23 2176.2 1897.53C2216.56 1859.82 2277.12 1837.83 2314.82 1878.18Z" fill="url(#paint39_linear_304_468)"/>
<path d="M2300.48 1891.4C2319.25 1911.48 2334 1945.39 2339.82 1978.26C2342.73 1994.68 2343.4 2010.78 2341.24 2024.73C2339.09 2038.68 2334.13 2050.37 2325.87 2058.08C2317.62 2065.79 2305.39 2069.92 2290.95 2071.08C2276.52 2072.23 2260.01 2070.41 2243.33 2066.34C2209.95 2058.18 2176.16 2041.03 2157.4 2020.95C2138.71 2000.95 2135.04 1978.15 2140.22 1956.39C2145.42 1934.59 2159.51 1913.81 2176.37 1898.06C2193.21 1882.32 2214.93 1870.65 2237.09 1867.93C2259.2 1865.2 2281.78 1871.38 2300.48 1891.4Z" fill="url(#paint40_linear_304_468)" stroke="url(#paint41_linear_304_468)" stroke-width="2"/>
<path d="M2194.49 1860.62C2196.92 1875.22 2188.15 1888.85 2173.55 1891.28C2158.94 1893.71 2145.13 1883.84 2142.7 1869.23C2140.27 1854.62 2151.49 1806.07 2157.14 1792.63C2166.17 1804.72 2192.06 1846.01 2194.49 1860.62Z" fill="url(#paint42_linear_304_468)"/>
<path d="M2186.26 1862.04C2187.47 1869.27 2186.68 1876.1 2184.35 1881.31C2182.02 1886.53 2178.17 1890.08 2173.24 1890.9C2168.3 1891.72 2163.31 1889.63 2159.22 1885.48C2155.14 1881.33 2152 1875.16 2150.79 1867.94C2150.2 1864.34 2150.09 1858.67 2150.33 1851.94C2150.57 1845.23 2151.16 1837.5 2151.92 1829.82C2153.36 1815.35 2155.45 1801.07 2157.08 1794.03C2160.73 1800.65 2167.16 1813.55 2173.09 1826.7C2176.23 1833.67 2179.22 1840.7 2181.59 1846.89C2183.95 1853.1 2185.67 1858.44 2186.26 1862.04Z" fill="url(#paint43_linear_304_468)" stroke="url(#paint44_linear_304_468)"/>
<path d="M2148.99 1890.4C2155.58 1890.46 2160.87 1895.36 2160.81 1901.95C2160.74 1908.54 2155.35 1913.83 2148.76 1913.76C2142.17 1913.7 2121.76 1905.03 2116.3 1901.52C2122.3 1898.49 2142.4 1890.34 2148.99 1890.4Z" fill="url(#paint45_linear_304_468)"/>
<path d="M2148.97 1894.39C2152.19 1894.42 2155.07 1895.28 2157.12 1896.67C2159.17 1898.06 2160.36 1899.95 2160.34 1902.05C2160.32 1904.16 2159.08 1906.12 2157 1907.55C2154.92 1908.98 2152.03 1909.87 2148.82 1909.84C2147.23 1909.82 2144.76 1909.44 2141.83 1908.81C2138.91 1908.19 2135.58 1907.34 2132.27 1906.41C2126.49 1904.79 2120.84 1902.94 2117.7 1901.68C2121.02 1900.58 2126.75 1898.9 2132.54 1897.43C2135.83 1896.59 2139.13 1895.82 2142.03 1895.27C2144.93 1894.71 2147.38 1894.38 2148.97 1894.39Z" fill="url(#paint46_linear_304_468)" stroke="url(#paint47_linear_304_468)"/>
<g filter="url(#filter10_i_304_468)">
<rect x="2168.25" y="1975.44" width="10" height="17" rx="5" transform="rotate(-43.054 2168.25 1975.44)" fill="url(#paint48_linear_304_468)"/>
</g>
<g filter="url(#filter11_i_304_468)">
<rect x="2243.51" y="1905.12" width="10" height="17" rx="5" transform="rotate(-43.054 2243.51 1905.12)" fill="url(#paint49_linear_304_468)"/>
</g>
<g filter="url(#filter12_i_304_468)">
<rect x="2231.5" y="1966.97" width="10" height="17" rx="5" transform="rotate(-43.054 2231.5 1966.97)" fill="url(#paint50_linear_304_468)"/>
</g>
<g filter="url(#filter13_i_304_468)">
<rect x="2299.49" y="1965.04" width="10" height="17" rx="5" transform="rotate(-43.054 2299.49 1965.04)" fill="url(#paint51_linear_304_468)"/>
</g>
</g>
<path d="M2348.32 141.58C2278.48 188.043 2208.37 134.62 2163.08 187.517C2117.04 129.185 2134.31 9.6444 2192.96 -36.6544C2251.61 -82.9532 2328.71 -88.4969 2374.76 -30.1654C2420.81 28.166 2410.47 100.226 2348.32 141.58Z" fill="url(#paint52_linear_304_468)"/>
<path d="M2340.33 131.925C2271.02 179.35 2209.25 136.576 2162.52 187.894C2123.77 138.806 2149.36 29.4808 2208.14 -16.922C2266.92 -63.3248 2339.88 -74.3585 2378.63 -25.2701C2417.38 23.8183 2402.02 89.7139 2340.33 131.925Z" fill="url(#paint53_linear_304_468)"/>
<path d="M2052.86 1387.11C2067.69 1393.13 2075.24 1408.85 2069.17 1423.62C2063.09 1438.38 2046.14 1445.47 2031.32 1439.46C2016.49 1433.44 1978.2 1395.75 1969.04 1382.99C1985.3 1381.53 2038.04 1381.09 2052.86 1387.11Z" fill="url(#paint54_linear_304_468)"/>
<path d="M2050.88 1391.95C2065.56 1397.91 2073.59 1411.56 2068.69 1423.47C2063.78 1435.4 2048.02 1440.45 2033.37 1434.5C2029.72 1433.03 2024.5 1429.77 2018.55 1425.52C2012.62 1421.27 2005.98 1416.05 1999.5 1410.65C1987.12 1400.34 1975.35 1389.43 1970.11 1383.51C1978.36 1383.44 1994.41 1384.06 2010.36 1385.39C2018.7 1386.09 2027 1386.99 2034.14 1388.08C2041.29 1389.18 2047.23 1390.47 2050.88 1391.95Z" fill="url(#paint55_linear_304_468)" stroke="url(#paint56_linear_304_468)"/>
<path d="M2181.18 1297.93C2264.48 1288.1 2302.83 1367.47 2367.15 1340.79C2381.82 1413.64 2312.32 1512.43 2239.07 1527.17C2165.81 1541.92 2094.55 1511.97 2079.88 1439.12C2065.21 1366.26 2107.04 1306.68 2181.18 1297.93Z" fill="url(#paint57_linear_304_468)"/>
<path d="M2183.94 1310.15C2267.21 1299.23 2302.93 1365.32 2367.83 1340.71C2380.17 1402.02 2307.87 1487.93 2234.46 1502.71C2161.04 1517.49 2090.99 1494.31 2078.65 1433C2066.31 1371.69 2109.82 1319.88 2183.94 1310.15Z" fill="url(#paint58_linear_304_468)"/>
<g filter="url(#filter14_i_304_468)">
<path d="M2116.98 1469.21C2114.73 1471.48 2114.75 1475.16 2117.21 1477.18C2122.1 1481.2 2127.54 1484.51 2133.37 1487.02C2136.28 1488.27 2139.56 1486.62 2140.58 1483.61V1483.61C2141.6 1480.6 2139.96 1477.36 2137.06 1476.06C2132.87 1474.16 2128.92 1471.76 2125.31 1468.9C2122.83 1466.93 2119.21 1466.94 2116.98 1469.21V1469.21Z" fill="#FFF95D"/>
</g>
<path d="M87.3271 1013.86C131.04 1057.82 102.17 1116.6 147.07 1141.78C111.21 1183.79 21.8404 1188.71 -20.1622 1152.85C-62.1648 1116.99 -77.1618 1061.75 -41.3014 1019.75C-5.44105 977.745 48.4201 974.722 87.3271 1013.86Z" fill="url(#paint59_linear_304_468)"/>
<path d="M81.4432 1021.07C125.782 1064.52 103.468 1115.67 147.425 1142.14C117.247 1177.49 34.1222 1174.87 -7.97482 1138.93C-50.0718 1102.99 -68.4699 1051.57 -38.2919 1016.22C-8.11382 980.876 41.9793 982.401 81.4432 1021.07Z" fill="url(#paint60_linear_304_468)"/>
<g filter="url(#filter15_d_304_468)">
<path d="M133.762 207.672C74.467 224.449 -33.7531 187.334 -50.2869 128.898C-66.8208 70.4614 8.2337 -21.9373 67.5283 -38.714C126.823 -55.4907 169.376 3.63221 185.91 62.0684C202.444 120.505 193.056 190.895 133.762 207.672Z" fill="url(#paint61_linear_304_468)"/>
<path d="M128.095 187.095C98.5479 195.455 57.4088 192.953 21.9004 182.208C4.15741 176.839 -12.1249 169.428 -24.8165 160.334C-37.5163 151.234 -46.5429 140.506 -49.9331 128.524C-53.3212 116.55 -51.1045 102.463 -44.8205 87.7152C-38.5419 72.9803 -28.2442 57.6868 -15.6325 43.3681C9.60879 14.7104 43.9584 -9.86441 73.4975 -18.2222C102.928 -26.5492 127.403 -18.7216 146.279 -2.73596C165.194 13.2816 178.503 37.5131 185.413 61.9357C192.316 86.3333 192.687 113.494 183.983 136.607C175.294 159.681 157.552 178.76 128.095 187.095Z" fill="url(#paint62_linear_304_468)" stroke="url(#paint63_linear_304_468)" stroke-width="2"/>
<path d="M213.006 98.4698C197.314 93.5435 188.346 78.1308 193.454 62.5937C198.562 47.0566 215.425 38.4549 231.117 43.3813C246.81 48.3077 289.051 83.6037 299.439 95.8653C282.844 98.6688 228.699 103.396 213.006 98.4698Z" fill="url(#paint64_linear_304_468)"/>
<path d="M215.808 89.7425C208.031 87.3012 201.672 83.1083 197.707 78.2043C193.744 73.3018 192.199 67.7292 193.93 62.4637C195.663 57.1926 200.315 53.3346 206.532 51.3999C212.746 49.4657 220.478 49.4734 228.245 51.9116C232.12 53.128 237.791 55.8681 244.318 59.4698C250.835 63.0662 258.176 67.5049 265.379 72.0994C279.025 80.8034 292.143 90.0441 298.226 95.1605C289.843 95.4249 273.686 95.2816 257.544 94.5098C249.041 94.1033 240.549 93.5228 233.205 92.7366C225.851 91.9493 219.683 90.959 215.808 89.7425Z" fill="url(#paint65_linear_304_468)" stroke="url(#paint66_linear_304_468)"/>
<path d="M206.951 38.9504C203.499 45.3797 195.936 48.1223 189.453 44.7623C182.969 41.4024 180.511 33.4666 183.963 27.0372C187.414 20.6079 206.485 4.93084 212.764 1.3401C212.67 8.73154 210.402 32.521 206.951 38.9504Z" fill="url(#paint67_linear_304_468)"/>
<path d="M203.059 36.9659C201.37 40.1117 199.033 42.5101 196.594 43.8329C194.157 45.1546 191.66 45.3863 189.565 44.3007C187.465 43.2125 186.164 41.0054 185.815 38.234C185.466 35.464 186.078 32.1752 187.762 29.0384C188.599 27.478 190.256 25.2441 192.38 22.6861C194.497 20.1365 197.054 17.2914 199.671 14.5156C204.313 9.5918 209.118 4.91305 211.965 2.49484C211.35 6.28372 210.054 12.8227 208.514 19.3184C207.648 22.9662 206.707 26.5937 205.769 29.7075C204.827 32.8315 203.897 35.4051 203.059 36.9659Z" fill="url(#paint68_linear_304_468)" stroke="url(#paint69_linear_304_468)"/>
<g filter="url(#filter16_i_304_468)">
<rect x="112.956" y="15.2856" width="10.9962" height="18.9681" rx="5" transform="rotate(74.2018 112.956 15.2856)" fill="url(#paint70_linear_304_468)"/>
</g>
<g filter="url(#filter17_i_304_468)">
<rect x="143.791" y="124.268" width="10.9962" height="18.9681" rx="5" transform="rotate(74.2018 143.791 124.268)" fill="url(#paint71_linear_304_468)"/>
</g>
<g filter="url(#filter18_i_304_468)">
<rect x="88.7991" y="81.5454" width="10.9962" height="18.9681" rx="5" transform="rotate(74.2018 88.7991 81.5454)" fill="url(#paint72_linear_304_468)"/>
</g>
<g filter="url(#filter19_i_304_468)">
<rect x="7.20361" y="104.632" width="10.9962" height="18.9681" rx="5" transform="rotate(74.2018 7.20361 104.632)" fill="url(#paint73_linear_304_468)"/>
</g>
<g filter="url(#filter20_i_304_468)">
<rect x="24.9185" y="40.1948" width="10.9962" height="18.9681" rx="5" transform="rotate(74.2018 24.9185 40.1948)" fill="url(#paint74_linear_304_468)"/>
</g>
<g filter="url(#filter21_i_304_468)">
<rect x="55.7539" y="149.177" width="10.9962" height="18.9681" rx="5" transform="rotate(74.2018 55.7539 149.177)" fill="url(#paint75_linear_304_468)"/>
</g>
</g>
<path d="M77.8121 460.391C77.0761 476.869 64.7541 488.936 48.8003 487.179C32.8465 485.422 20.51 470.64 21.2461 454.162C21.9821 437.684 44.781 388.693 53.7712 375.891C60.5631 391.63 78.5481 443.913 77.8121 460.391Z" fill="url(#paint76_linear_304_468)"/>
<path d="M72.5855 459.823C71.8557 476.16 61.6419 488.098 48.7833 486.682C35.9011 485.263 25.8704 471.065 26.5988 454.758C26.78 450.701 28.1112 444.573 30.1437 437.427C32.1729 430.293 34.8898 422.184 37.8218 414.179C43.4244 398.884 49.796 384.018 53.636 377.099C56.455 385.277 61.2218 401.409 65.2742 417.649C67.392 426.136 69.3127 434.645 70.6577 442.057C72.0049 449.481 72.7667 455.765 72.5855 459.823Z" fill="url(#paint77_linear_304_468)" stroke="url(#paint78_linear_304_468)"/>
<path fill-rule="evenodd" clip-rule="evenodd" d="M233.655 511.975C218.185 515.606 199.935 511.993 184.064 500.624C168.061 489.16 158.026 472.351 155.483 455.607C155.188 465.905 157.647 476.581 163.156 486.431C177.792 512.603 208.663 523.485 233.655 511.975Z" fill="url(#paint79_linear_304_468)"/>
<path fill-rule="evenodd" clip-rule="evenodd" d="M234.71 511.134C234.444 511.201 234.176 511.266 233.908 511.329C208.916 522.84 178.045 511.958 163.409 485.785C158.096 476.286 155.62 466.019 155.715 456.063C124.966 451.31 92.7716 463.365 66.767 499.936C-44.2202 521.287 -49.228 589.675 -10.9104 658.194C27.4072 726.712 126.796 770.105 178.816 700.298C267.26 695.625 280.473 591.704 242.155 523.186C239.83 519.028 237.343 515.005 234.71 511.134Z" fill="url(#paint80_linear_304_468)"/>
<mask id="path-67-inside-3_304_468" fill="white">
<path fill-rule="evenodd" clip-rule="evenodd" d="M234.887 511.398C234.279 511.566 233.666 511.722 233.049 511.867C208.056 523.378 177.186 512.496 162.549 486.323C157.109 476.595 154.643 466.063 154.867 455.883C124.451 451.487 92.7136 463.627 67.0572 499.784C-32.4273 526.093 -34.3239 583.762 4.00312 652.297C42.3301 720.832 130.611 764.715 179.134 700.196C267.422 695.621 280.5 591.752 242.173 523.217C239.894 519.143 237.461 515.198 234.887 511.398Z"/>
</mask>
<path fill-rule="evenodd" clip-rule="evenodd" d="M234.887 511.398C234.279 511.566 233.666 511.722 233.049 511.867C208.056 523.378 177.186 512.496 162.549 486.323C157.109 476.595 154.643 466.063 154.867 455.883C124.451 451.487 92.7136 463.627 67.0572 499.784C-32.4273 526.093 -34.3239 583.762 4.00312 652.297C42.3301 720.832 130.611 764.715 179.134 700.196C267.422 695.621 280.5 591.752 242.173 523.217C239.894 519.143 237.461 515.198 234.887 511.398Z" fill="url(#paint81_linear_304_468)"/>
<path d="M234.887 511.398L235.715 510.837L235.313 510.243L234.621 510.434L234.887 511.398ZM233.049 511.867L232.82 510.894L232.722 510.917L232.631 510.959L233.049 511.867ZM154.867 455.883L155.867 455.905L155.886 455.02L155.01 454.894L154.867 455.883ZM67.0572 499.784L67.3129 500.751L67.6631 500.659L67.8728 500.363L67.0572 499.784ZM179.134 700.196L179.082 699.197L178.615 699.221L178.334 699.595L179.134 700.196ZM234.621 510.434C234.026 510.599 233.425 510.752 232.82 510.894L233.277 512.841C233.907 512.693 234.533 512.533 235.153 512.362L234.621 510.434ZM232.631 510.959C208.161 522.228 177.831 511.601 163.422 485.835L161.677 486.811C176.541 513.39 207.951 524.527 233.467 512.776L232.631 510.959ZM163.422 485.835C158.07 476.264 155.647 465.908 155.867 455.905L153.867 455.861C153.639 466.217 156.149 476.926 161.677 486.811L163.422 485.835ZM67.8728 500.363C93.343 464.468 124.729 452.538 154.724 456.873L155.01 454.894C124.172 450.437 92.0843 462.786 66.2417 499.206L67.8728 500.363ZM4.87591 651.809C-14.2573 617.595 -23.1855 586.362 -15.1937 560.501C-7.22522 534.715 17.7062 513.87 67.3129 500.751L66.8016 498.818C16.9237 512.008 -8.83539 533.151 -17.1046 559.91C-25.3505 586.594 -16.0635 618.463 3.13032 652.785L4.87591 651.809ZM178.334 699.595C166.332 715.554 151.908 724.769 136.448 728.598C120.976 732.43 104.395 730.884 88.074 725.197C55.4118 713.817 23.9384 685.896 4.87591 651.809L3.13032 652.785C22.3948 687.233 54.2254 715.521 87.416 727.086C104.021 732.872 121.004 734.483 136.929 730.539C152.867 726.592 167.674 717.097 179.933 700.797L178.334 699.595ZM241.3 523.705C260.35 557.77 266.608 600.603 257.169 635.43C252.452 652.832 243.828 668.201 230.96 679.499C218.101 690.79 200.949 698.064 179.082 699.197L179.185 701.195C201.462 700.04 219.054 692.615 232.28 681.002C245.497 669.396 254.301 653.657 259.099 635.953C268.689 600.568 262.322 557.2 243.045 522.729L241.3 523.705ZM234.059 511.959C236.617 515.735 239.035 519.656 241.3 523.705L243.045 522.729C240.753 518.63 238.305 514.661 235.715 510.837L234.059 511.959Z" fill="url(#paint82_linear_304_468)" mask="url(#path-67-inside-3_304_468)"/>
</g>
<defs>
<filter id="filter0_d_304_468" x="2128.28" y="270.393" width="286.366" height="364.429" filterUnits="userSpaceOnUse" color-interpolation-filters="sRGB">
<feFlood flood-opacity="0" result="BackgroundImageFix"/>
<feColorMatrix in="SourceAlpha" type="matrix" values="0 0 0 0 0 0 0 0 0 0 0 0 0 0 0 0 0 0 127 0" result="hardAlpha"/>
<feOffset dy="20"/>
<feGaussianBlur stdDeviation="15"/>
<feColorMatrix type="matrix" values="0 0 0 0 0 0 0 0 0 0 0 0 0 0 0 0 0 0 0.25 0"/>
<feBlend mode="normal" in2="BackgroundImageFix" result="effect1_dropShadow_304_468"/>
<feBlend mode="normal" in="SourceGraphic" in2="effect1_dropShadow_304_468" result="shape"/>
</filter>
<filter id="filter1_i_304_468" x="2206.18" y="458.17" width="13.5959" height="20.0081" filterUnits="userSpaceOnUse" color-interpolation-filters="sRGB">
<feFlood flood-opacity="0" result="BackgroundImageFix"/>
<feBlend mode="normal" in="SourceGraphic" in2="BackgroundImageFix" result="shape"/>
<feColorMatrix in="SourceAlpha" type="matrix" values="0 0 0 0 0 0 0 0 0 0 0 0 0 0 0 0 0 0 127 0" result="hardAlpha"/>
<feOffset dy="5"/>
<feGaussianBlur stdDeviation="2"/>
<feComposite in2="hardAlpha" operator="arithmetic" k2="-1" k3="1"/>
<feColorMatrix type="matrix" values="0 0 0 0 0 0 0 0 0 0 0 0 0 0 0 0 0 0 0.25 0"/>
<feBlend mode="normal" in2="shape" result="effect1_innerShadow_304_468"/>
</filter>
<filter id="filter2_i_304_468" x="2294.56" y="405.281" width="13.5959" height="20.0081" filterUnits="userSpaceOnUse" color-interpolation-filters="sRGB">
<feFlood flood-opacity="0" result="BackgroundImageFix"/>
<feBlend mode="normal" in="SourceGraphic" in2="BackgroundImageFix" result="shape"/>
<feColorMatrix in="SourceAlpha" type="matrix" values="0 0 0 0 0 0 0 0 0 0 0 0 0 0 0 0 0 0 127 0" result="hardAlpha"/>
<feOffset dy="5"/>
<feGaussianBlur stdDeviation="2"/>
<feComposite in2="hardAlpha" operator="arithmetic" k2="-1" k3="1"/>
<feColorMatrix type="matrix" values="0 0 0 0 0 0 0 0 0 0 0 0 0 0 0 0 0 0 0.25 0"/>
<feBlend mode="normal" in2="shape" result="effect1_innerShadow_304_468"/>
</filter>
<filter id="filter3_i_304_468" x="2269.8" y="463.219" width="13.5959" height="20.0081" filterUnits="userSpaceOnUse" color-interpolation-filters="sRGB">
<feFlood flood-opacity="0" result="BackgroundImageFix"/>
<feBlend mode="normal" in="SourceGraphic" in2="BackgroundImageFix" result="shape"/>
<feColorMatrix in="SourceAlpha" type="matrix" values="0 0 0 0 0 0 0 0 0 0 0 0 0 0 0 0 0 0 127 0" result="hardAlpha"/>
<feOffset dy="5"/>
<feGaussianBlur stdDeviation="2"/>
<feComposite in2="hardAlpha" operator="arithmetic" k2="-1" k3="1"/>
<feColorMatrix type="matrix" values="0 0 0 0 0 0 0 0 0 0 0 0 0 0 0 0 0 0 0.25 0"/>
<feBlend mode="normal" in2="shape" result="effect1_innerShadow_304_468"/>
</filter>
<filter id="filter4_i_304_468" x="2248.28" y="528.534" width="13.5959" height="20.0081" filterUnits="userSpaceOnUse" color-interpolation-filters="sRGB">
<feFlood flood-opacity="0" result="BackgroundImageFix"/>
<feBlend mode="normal" in="SourceGraphic" in2="BackgroundImageFix" result="shape"/>
<feColorMatrix in="SourceAlpha" type="matrix" values="0 0 0 0 0 0 0 0 0 0 0 0 0 0 0 0 0 0 127 0" result="hardAlpha"/>
<feOffset dy="5"/>
<feGaussianBlur stdDeviation="2"/>
<feComposite in2="hardAlpha" operator="arithmetic" k2="-1" k3="1"/>
<feColorMatrix type="matrix" values="0 0 0 0 0 0 0 0 0 0 0 0 0 0 0 0 0 0 0.25 0"/>
<feBlend mode="normal" in2="shape" result="effect1_innerShadow_304_468"/>
</filter>
<filter id="filter5_d_304_468" x="-136.335" y="1252.91" width="376.256" height="291.3" filterUnits="userSpaceOnUse" color-interpolation-filters="sRGB">
<feFlood flood-opacity="0" result="BackgroundImageFix"/>
<feColorMatrix in="SourceAlpha" type="matrix" values="0 0 0 0 0 0 0 0 0 0 0 0 0 0 0 0 0 0 127 0" result="hardAlpha"/>
<feOffset dy="20"/>
<feGaussianBlur stdDeviation="15"/>
<feColorMatrix type="matrix" values="0 0 0 0 0 0 0 0 0 0 0 0 0 0 0 0 0 0 0.25 0"/>
<feBlend mode="normal" in2="BackgroundImageFix" result="effect1_dropShadow_304_468"/>
<feBlend mode="normal" in="SourceGraphic" in2="effect1_dropShadow_304_468" result="shape"/>
</filter>
<filter id="filter6_i_304_468" x="33.9236" y="1317.69" width="16.8853" height="15.2737" filterUnits="userSpaceOnUse" color-interpolation-filters="sRGB">
<feFlood flood-opacity="0" result="BackgroundImageFix"/>
<feBlend mode="normal" in="SourceGraphic" in2="BackgroundImageFix" result="shape"/>
<feColorMatrix in="SourceAlpha" type="matrix" values="0 0 0 0 0 0 0 0 0 0 0 0 0 0 0 0 0 0 127 0" result="hardAlpha"/>
<feOffset dy="5"/>
<feGaussianBlur stdDeviation="2"/>
<feComposite in2="hardAlpha" operator="arithmetic" k2="-1" k3="1"/>
<feColorMatrix type="matrix" values="0 0 0 0 0 0 0 0 0 0 0 0 0 0 0 0 0 0 0.25 0"/>
<feBlend mode="normal" in2="shape" result="effect1_innerShadow_304_468"/>
</filter>
<filter id="filter7_i_304_468" x="52.6382" y="1418.98" width="16.8853" height="15.2737" filterUnits="userSpaceOnUse" color-interpolation-filters="sRGB">
<feFlood flood-opacity="0" result="BackgroundImageFix"/>
<feBlend mode="normal" in="SourceGraphic" in2="BackgroundImageFix" result="shape"/>
<feColorMatrix in="SourceAlpha" type="matrix" values="0 0 0 0 0 0 0 0 0 0 0 0 0 0 0 0 0 0 127 0" result="hardAlpha"/>
<feOffset dy="5"/>
<feGaussianBlur stdDeviation="2"/>
<feComposite in2="hardAlpha" operator="arithmetic" k2="-1" k3="1"/>
<feColorMatrix type="matrix" values="0 0 0 0 0 0 0 0 0 0 0 0 0 0 0 0 0 0 0.25 0"/>
<feBlend mode="normal" in2="shape" result="effect1_innerShadow_304_468"/>
</filter>
<filter id="filter8_i_304_468" x="6.98755" y="1375.55" width="16.8853" height="15.2737" filterUnits="userSpaceOnUse" color-interpolation-filters="sRGB">
<feFlood flood-opacity="0" result="BackgroundImageFix"/>
<feBlend mode="normal" in="SourceGraphic" in2="BackgroundImageFix" result="shape"/>
<feColorMatrix in="SourceAlpha" type="matrix" values="0 0 0 0 0 0 0 0 0 0 0 0 0 0 0 0 0 0 127 0" result="hardAlpha"/>
<feOffset dy="5"/>
<feGaussianBlur stdDeviation="2"/>
<feComposite in2="hardAlpha" operator="arithmetic" k2="-1" k3="1"/>
<feColorMatrix type="matrix" values="0 0 0 0 0 0 0 0 0 0 0 0 0 0 0 0 0 0 0.25 0"/>
<feBlend mode="normal" in2="shape" result="effect1_innerShadow_304_468"/>
</filter>
<filter id="filter9_d_304_468" x="2086.3" y="1782.63" width="294.361" height="345.309" filterUnits="userSpaceOnUse" color-interpolation-filters="sRGB">
<feFlood flood-opacity="0" result="BackgroundImageFix"/>
<feColorMatrix in="SourceAlpha" type="matrix" values="0 0 0 0 0 0 0 0 0 0 0 0 0 0 0 0 0 0 127 0" result="hardAlpha"/>
<feOffset dy="20"/>
<feGaussianBlur stdDeviation="15"/>
<feColorMatrix type="matrix" values="0 0 0 0 0 0 0 0 0 0 0 0 0 0 0 0 0 0 0.25 0"/>
<feBlend mode="normal" in2="BackgroundImageFix" result="effect1_dropShadow_304_468"/>
<feBlend mode="normal" in="SourceGraphic" in2="effect1_dropShadow_304_468" result="shape"/>
</filter>
<filter id="filter10_i_304_468" x="2170.31" y="1970.68" width="14.7789" height="19.115" filterUnits="userSpaceOnUse" color-interpolation-filters="sRGB">
<feFlood flood-opacity="0" result="BackgroundImageFix"/>
<feBlend mode="normal" in="SourceGraphic" in2="BackgroundImageFix" result="shape"/>
<feColorMatrix in="SourceAlpha" type="matrix" values="0 0 0 0 0 0 0 0 0 0 0 0 0 0 0 0 0 0 127 0" result="hardAlpha"/>
<feOffset dy="5"/>
<feGaussianBlur stdDeviation="2"/>
<feComposite in2="hardAlpha" operator="arithmetic" k2="-1" k3="1"/>
<feColorMatrix type="matrix" values="0 0 0 0 0 0 0 0 0 0 0 0 0 0 0 0 0 0 0.25 0"/>
<feBlend mode="normal" in2="shape" result="effect1_innerShadow_304_468"/>
</filter>
<filter id="filter11_i_304_468" x="2245.58" y="1900.36" width="14.7789" height="19.115" filterUnits="userSpaceOnUse" color-interpolation-filters="sRGB">
<feFlood flood-opacity="0" result="BackgroundImageFix"/>
<feBlend mode="normal" in="SourceGraphic" in2="BackgroundImageFix" result="shape"/>
<feColorMatrix in="SourceAlpha" type="matrix" values="0 0 0 0 0 0 0 0 0 0 0 0 0 0 0 0 0 0 127 0" result="hardAlpha"/>
<feOffset dy="5"/>
<feGaussianBlur stdDeviation="2"/>
<feComposite in2="hardAlpha" operator="arithmetic" k2="-1" k3="1"/>
<feColorMatrix type="matrix" values="0 0 0 0 0 0 0 0 0 0 0 0 0 0 0 0 0 0 0.25 0"/>
<feBlend mode="normal" in2="shape" result="effect1_innerShadow_304_468"/>
</filter>
<filter id="filter12_i_304_468" x="2233.57" y="1962.21" width="14.7789" height="19.115" filterUnits="userSpaceOnUse" color-interpolation-filters="sRGB">
<feFlood flood-opacity="0" result="BackgroundImageFix"/>
<feBlend mode="normal" in="SourceGraphic" in2="BackgroundImageFix" result="shape"/>
<feColorMatrix in="SourceAlpha" type="matrix" values="0 0 0 0 0 0 0 0 0 0 0 0 0 0 0 0 0 0 127 0" result="hardAlpha"/>
<feOffset dy="5"/>
<feGaussianBlur stdDeviation="2"/>
<feComposite in2="hardAlpha" operator="arithmetic" k2="-1" k3="1"/>
<feColorMatrix type="matrix" values="0 0 0 0 0 0 0 0 0 0 0 0 0 0 0 0 0 0 0.25 0"/>
<feBlend mode="normal" in2="shape" result="effect1_innerShadow_304_468"/>
</filter>
<filter id="filter13_i_304_468" x="2301.56" y="1960.28" width="14.7789" height="19.115" filterUnits="userSpaceOnUse" color-interpolation-filters="sRGB">
<feFlood flood-opacity="0" result="BackgroundImageFix"/>
<feBlend mode="normal" in="SourceGraphic" in2="BackgroundImageFix" result="shape"/>
<feColorMatrix in="SourceAlpha" type="matrix" values="0 0 0 0 0 0 0 0 0 0 0 0 0 0 0 0 0 0 127 0" result="hardAlpha"/>
<feOffset dy="5"/>
<feGaussianBlur stdDeviation="2"/>
<feComposite in2="hardAlpha" operator="arithmetic" k2="-1" k3="1"/>
<feColorMatrix type="matrix" values="0 0 0 0 0 0 0 0 0 0 0 0 0 0 0 0 0 0 0.25 0"/>
<feBlend mode="normal" in2="shape" result="effect1_innerShadow_304_468"/>
</filter>
<filter id="filter14_i_304_468" x="2115.33" y="1467.46" width="27.5516" height="21.9763" filterUnits="userSpaceOnUse" color-interpolation-filters="sRGB">
<feFlood flood-opacity="0" result="BackgroundImageFix"/>
<feBlend mode="normal" in="SourceGraphic" in2="BackgroundImageFix" result="shape"/>
<feColorMatrix in="SourceAlpha" type="matrix" values="0 0 0 0 0 0 0 0 0 0 0 0 0 0 0 0 0 0 127 0" result="hardAlpha"/>
<feOffset dx="2" dy="4"/>
<feGaussianBlur stdDeviation="1"/>
<feComposite in2="hardAlpha" operator="arithmetic" k2="-1" k3="1"/>
<feColorMatrix type="matrix" values="0 0 0 0 0 0 0 0 0 0 0 0 0 0 0 0 0 0 0.25 0"/>
<feBlend mode="normal" in2="shape" result="effect1_innerShadow_304_468"/>
</filter>
<filter id="filter15_d_304_468" x="-82.6116" y="-51.6084" width="412.134" height="313.33" filterUnits="userSpaceOnUse" color-interpolation-filters="sRGB">
<feFlood flood-opacity="0" result="BackgroundImageFix"/>
<feColorMatrix in="SourceAlpha" type="matrix" values="0 0 0 0 0 0 0 0 0 0 0 0 0 0 0 0 0 0 127 0" result="hardAlpha"/>
<feOffset dy="20"/>
<feGaussianBlur stdDeviation="15"/>
<feColorMatrix type="matrix" values="0 0 0 0 0 0 0 0 0 0 0 0 0 0 0 0 0 0 0.25 0"/>
<feBlend mode="normal" in2="BackgroundImageFix" result="effect1_dropShadow_304_468"/>
<feBlend mode="normal" in="SourceGraphic" in2="effect1_dropShadow_304_468" result="shape"/>
</filter>
<filter id="filter16_i_304_468" x="95.8752" y="16.4568" width="18.9031" height="17.4026" filterUnits="userSpaceOnUse" color-interpolation-filters="sRGB">
<feFlood flood-opacity="0" result="BackgroundImageFix"/>
<feBlend mode="normal" in="SourceGraphic" in2="BackgroundImageFix" result="shape"/>
<feColorMatrix in="SourceAlpha" type="matrix" values="0 0 0 0 0 0 0 0 0 0 0 0 0 0 0 0 0 0 127 0" result="hardAlpha"/>
<feOffset dy="5"/>
<feGaussianBlur stdDeviation="2"/>
<feComposite in2="hardAlpha" operator="arithmetic" k2="-1" k3="1"/>
<feColorMatrix type="matrix" values="0 0 0 0 0 0 0 0 0 0 0 0 0 0 0 0 0 0 0.25 0"/>
<feBlend mode="normal" in2="shape" result="effect1_innerShadow_304_468"/>
</filter>
<filter id="filter17_i_304_468" x="126.71" y="125.439" width="18.9031" height="17.4026" filterUnits="userSpaceOnUse" color-interpolation-filters="sRGB">
<feFlood flood-opacity="0" result="BackgroundImageFix"/>
<feBlend mode="normal" in="SourceGraphic" in2="BackgroundImageFix" result="shape"/>
<feColorMatrix in="SourceAlpha" type="matrix" values="0 0 0 0 0 0 0 0 0 0 0 0 0 0 0 0 0 0 127 0" result="hardAlpha"/>
<feOffset dy="5"/>
<feGaussianBlur stdDeviation="2"/>
<feComposite in2="hardAlpha" operator="arithmetic" k2="-1" k3="1"/>
<feColorMatrix type="matrix" values="0 0 0 0 0 0 0 0 0 0 0 0 0 0 0 0 0 0 0.25 0"/>
<feBlend mode="normal" in2="shape" result="effect1_innerShadow_304_468"/>
</filter>
<filter id="filter18_i_304_468" x="71.7185" y="82.7166" width="18.9031" height="17.4026" filterUnits="userSpaceOnUse" color-interpolation-filters="sRGB">
<feFlood flood-opacity="0" result="BackgroundImageFix"/>
<feBlend mode="normal" in="SourceGraphic" in2="BackgroundImageFix" result="shape"/>
<feColorMatrix in="SourceAlpha" type="matrix" values="0 0 0 0 0 0 0 0 0 0 0 0 0 0 0 0 0 0 127 0" result="hardAlpha"/>
<feOffset dy="5"/>
<feGaussianBlur stdDeviation="2"/>
<feComposite in2="hardAlpha" operator="arithmetic" k2="-1" k3="1"/>
<feColorMatrix type="matrix" values="0 0 0 0 0 0 0 0 0 0 0 0 0 0 0 0 0 0 0.25 0"/>
<feBlend mode="normal" in2="shape" result="effect1_innerShadow_304_468"/>
</filter>
<filter id="filter19_i_304_468" x="-9.87695" y="105.803" width="18.9031" height="17.4026" filterUnits="userSpaceOnUse" color-interpolation-filters="sRGB">
<feFlood flood-opacity="0" result="BackgroundImageFix"/>
<feBlend mode="normal" in="SourceGraphic" in2="BackgroundImageFix" result="shape"/>
<feColorMatrix in="SourceAlpha" type="matrix" values="0 0 0 0 0 0 0 0 0 0 0 0 0 0 0 0 0 0 127 0" result="hardAlpha"/>
<feOffset dy="5"/>
<feGaussianBlur stdDeviation="2"/>
<feComposite in2="hardAlpha" operator="arithmetic" k2="-1" k3="1"/>
<feColorMatrix type="matrix" values="0 0 0 0 0 0 0 0 0 0 0 0 0 0 0 0 0 0 0.25 0"/>
<feBlend mode="normal" in2="shape" result="effect1_innerShadow_304_468"/>
</filter>
<filter id="filter20_i_304_468" x="7.83789" y="41.366" width="18.9031" height="17.4026" filterUnits="userSpaceOnUse" color-interpolation-filters="sRGB">
<feFlood flood-opacity="0" result="BackgroundImageFix"/>
<feBlend mode="normal" in="SourceGraphic" in2="BackgroundImageFix" result="shape"/>
<feColorMatrix in="SourceAlpha" type="matrix" values="0 0 0 0 0 0 0 0 0 0 0 0 0 0 0 0 0 0 127 0" result="hardAlpha"/>
<feOffset dy="5"/>
<feGaussianBlur stdDeviation="2"/>
<feComposite in2="hardAlpha" operator="arithmetic" k2="-1" k3="1"/>
<feColorMatrix type="matrix" values="0 0 0 0 0 0 0 0 0 0 0 0 0 0 0 0 0 0 0.25 0"/>
<feBlend mode="normal" in2="shape" result="effect1_innerShadow_304_468"/>
</filter>
<filter id="filter21_i_304_468" x="38.6733" y="150.348" width="18.9031" height="17.4026" filterUnits="userSpaceOnUse" color-interpolation-filters="sRGB">
<feFlood flood-opacity="0" result="BackgroundImageFix"/>
<feBlend mode="normal" in="SourceGraphic" in2="BackgroundImageFix" result="shape"/>
<feColorMatrix in="SourceAlpha" type="matrix" values="0 0 0 0 0 0 0 0 0 0 0 0 0 0 0 0 0 0 127 0" result="hardAlpha"/>
<feOffset dy="5"/>
<feGaussianBlur stdDeviation="2"/>
<feComposite in2="hardAlpha" operator="arithmetic" k2="-1" k3="1"/>
<feColorMatrix type="matrix" values="0 0 0 0 0 0 0 0 0 0 0 0 0 0 0 0 0 0 0.25 0"/>
<feBlend mode="normal" in2="shape" result="effect1_innerShadow_304_468"/>
</filter>
<linearGradient id="paint0_linear_304_468" x1="2227.22" y1="387.73" x2="2340.18" y2="576.512" gradientUnits="userSpaceOnUse">
<stop stop-color="#FF002E"/>
<stop offset="0.503125" stop-color="#AB003E"/>
<stop offset="1" stop-color="#FF005C"/>
</linearGradient>
<linearGradient id="paint1_linear_304_468" x1="2226.96" y1="387.301" x2="2340.44" y2="576.941" gradientUnits="userSpaceOnUse">
<stop stop-color="#FF004D"/>
<stop offset="1" stop-color="#AC003E"/>
</linearGradient>
<linearGradient id="paint2_linear_304_468" x1="2367.66" y1="400.415" x2="2324.43" y2="483.97" gradientUnits="userSpaceOnUse">
<stop/>
<stop offset="0.0001" stop-color="#850038" stop-opacity="0.66"/>
<stop offset="1" stop-color="white" stop-opacity="0"/>
</linearGradient>
<linearGradient id="paint3_linear_304_468" x1="2231.4" y1="280.378" x2="2226.67" y2="380.266" gradientUnits="userSpaceOnUse">
<stop stop-color="#00FF38"/>
<stop offset="0.560417" stop-color="#00B127"/>
<stop offset="1" stop-color="#00FF38"/>
</linearGradient>
<linearGradient id="paint4_linear_304_468" x1="2247.36" y1="319.154" x2="2220.12" y2="373.916" gradientUnits="userSpaceOnUse">
<stop stop-color="#00A023"/>
<stop offset="1" stop-color="#007119" stop-opacity="0"/>
</linearGradient>
<linearGradient id="paint5_linear_304_468" x1="2255.75" y1="332.198" x2="2218.46" y2="328.295" gradientUnits="userSpaceOnUse">
<stop stop-color="#43FF9A"/>
<stop offset="1" stop-color="white" stop-opacity="0"/>
</linearGradient>
<linearGradient id="paint6_linear_304_468" x1="2169.06" y1="378.489" x2="2212.47" y2="388.284" gradientUnits="userSpaceOnUse">
<stop stop-color="#00FF38"/>
<stop offset="0.560417" stop-color="#00B127"/>
<stop offset="1" stop-color="#00FF38"/>
</linearGradient>
<linearGradient id="paint7_linear_304_468" x1="2169.05" y1="378.522" x2="2212.5" y2="388.325" gradientUnits="userSpaceOnUse">
<stop stop-color="#00A023"/>
<stop offset="1" stop-color="#007119" stop-opacity="0"/>
</linearGradient>
<linearGradient id="paint8_linear_304_468" x1="2196.11" y1="373.716" x2="2196.26" y2="390.523" gradientUnits="userSpaceOnUse">
<stop stop-color="#9FFFBF"/>
<stop offset="1" stop-color="white" stop-opacity="0"/>
</linearGradient>
<linearGradient id="paint9_linear_304_468" x1="2209.32" y1="461.448" x2="2209.32" y2="478.448" gradientUnits="userSpaceOnUse">
<stop stop-color="white"/>
<stop offset="1" stop-color="white"/>
</linearGradient>
<linearGradient id="paint10_linear_304_468" x1="2297.71" y1="408.559" x2="2297.71" y2="425.559" gradientUnits="userSpaceOnUse">
<stop stop-color="white"/>
<stop offset="1" stop-color="white"/>
</linearGradient>
<linearGradient id="paint11_linear_304_468" x1="2272.94" y1="466.496" x2="2272.94" y2="483.496" gradientUnits="userSpaceOnUse">
<stop stop-color="white"/>
<stop offset="1" stop-color="white"/>
</linearGradient>
<linearGradient id="paint12_linear_304_468" x1="2251.43" y1="531.812" x2="2251.43" y2="548.812" gradientUnits="userSpaceOnUse">
<stop stop-color="white"/>
<stop offset="1" stop-color="white"/>
</linearGradient>
<linearGradient id="paint13_linear_304_468" x1="110.906" y1="1364.06" x2="-105.432" y2="1404.03" gradientUnits="userSpaceOnUse">
<stop stop-color="#FF002E"/>
<stop offset="0.503125" stop-color="#AB003E"/>
<stop offset="1" stop-color="#FF005C"/>
</linearGradient>
<linearGradient id="paint14_linear_304_468" x1="111.398" y1="1363.97" x2="-105.923" y2="1404.12" gradientUnits="userSpaceOnUse">
<stop stop-color="#FF004D"/>
<stop offset="1" stop-color="#AC003E"/>
</linearGradient>
<linearGradient id="paint15_linear_304_468" x1="50.0011" y1="1491.24" x2="-13.2105" y2="1421.56" gradientUnits="userSpaceOnUse">
<stop/>
<stop offset="0.0001" stop-color="#850038" stop-opacity="0.66"/>
<stop offset="1" stop-color="white" stop-opacity="0"/>
</linearGradient>
<linearGradient id="paint16_linear_304_468" x1="210.047" y1="1405.45" x2="118.094" y2="1366.15" gradientUnits="userSpaceOnUse">
<stop stop-color="#00FF38"/>
<stop offset="0.560417" stop-color="#00B127"/>
<stop offset="1" stop-color="#00FF38"/>
</linearGradient>
<linearGradient id="paint17_linear_304_468" x1="168.138" y1="1406.87" x2="126.33" y2="1362.22" gradientUnits="userSpaceOnUse">
<stop stop-color="#00A023"/>
<stop offset="1" stop-color="#007119" stop-opacity="0"/>
</linearGradient>
<linearGradient id="paint18_linear_304_468" x1="152.987" y1="1410.18" x2="169.661" y2="1376.59" gradientUnits="userSpaceOnUse">
<stop stop-color="#43FF9A"/>
<stop offset="1" stop-color="white" stop-opacity="0"/>
</linearGradient>
<linearGradient id="paint19_linear_304_468" x1="139.866" y1="1312.78" x2="115.534" y2="1350.04" gradientUnits="userSpaceOnUse">
<stop stop-color="#00FF38"/>
<stop offset="0.560417" stop-color="#00B127"/>
<stop offset="1" stop-color="#00FF38"/>
</linearGradient>
<linearGradient id="paint20_linear_304_468" x1="139.838" y1="1312.76" x2="115.487" y2="1350.05" gradientUnits="userSpaceOnUse">
<stop stop-color="#00A023"/>
<stop offset="1" stop-color="#007119" stop-opacity="0"/>
</linearGradient>
<linearGradient id="paint21_linear_304_468" x1="134.897" y1="1339.79" x2="119.094" y2="1334.07" gradientUnits="userSpaceOnUse">
<stop stop-color="#9FFFBF"/>
<stop offset="1" stop-color="white" stop-opacity="0"/>
</linearGradient>
<linearGradient id="paint22_linear_304_468" x1="54.8162" y1="1316.87" x2="54.8162" y2="1333.87" gradientUnits="userSpaceOnUse">
<stop stop-color="white"/>
<stop offset="1" stop-color="white"/>
</linearGradient>
<linearGradient id="paint23_linear_304_468" x1="73.5308" y1="1418.16" x2="73.5308" y2="1435.16" gradientUnits="userSpaceOnUse">
<stop stop-color="white"/>
<stop offset="1" stop-color="white"/>
</linearGradient>
<linearGradient id="paint24_linear_304_468" x1="27.8801" y1="1374.73" x2="27.8801" y2="1391.73" gradientUnits="userSpaceOnUse">
<stop stop-color="white"/>
<stop offset="1" stop-color="white"/>
</linearGradient>
<linearGradient id="paint25_linear_304_468" x1="2424.36" y1="873.932" x2="2304.03" y2="895.668" gradientUnits="userSpaceOnUse">
<stop stop-color="#007E1C"/>
<stop offset="0.466667" stop-color="#54FF7A"/>
<stop offset="1" stop-color="#005914"/>
</linearGradient>
<linearGradient id="paint26_linear_304_468" x1="2352.19" y1="915.068" x2="2315.04" y2="861.705" gradientUnits="userSpaceOnUse">
<stop stop-color="#00FF38"/>
<stop offset="1" stop-color="#008D1F"/>
</linearGradient>
<linearGradient id="paint27_linear_304_468" x1="2380.97" y1="900.194" x2="2364.19" y2="860.724" gradientUnits="userSpaceOnUse">
<stop stop-color="#038700"/>
<stop offset="1" stop-color="white" stop-opacity="0"/>
</linearGradient>
<linearGradient id="paint28_linear_304_468" x1="2428.49" y1="1025.78" x2="2339.39" y2="1105.41" gradientUnits="userSpaceOnUse">
<stop stop-color="white"/>
<stop offset="0.763542" stop-color="#A30000"/>
</linearGradient>
<linearGradient id="paint29_linear_304_468" x1="2302.78" y1="900.125" x2="2304.34" y2="834.598" gradientUnits="userSpaceOnUse">
<stop stop-color="#FF8181"/>
<stop offset="1" stop-color="#BC0000"/>
</linearGradient>
<linearGradient id="paint30_linear_304_468" x1="2114.4" y1="860.829" x2="2401.52" y2="1067.3" gradientUnits="userSpaceOnUse">
<stop stop-color="#FF0000"/>
<stop offset="1" stop-color="#FFAEAE"/>
</linearGradient>
<linearGradient id="paint31_linear_304_468" x1="2123.13" y1="830.252" x2="2176.86" y2="992.988" gradientUnits="userSpaceOnUse">
<stop stop-color="#FF9292"/>
<stop offset="1" stop-color="white" stop-opacity="0"/>
</linearGradient>
<linearGradient id="paint32_linear_304_468" x1="309.358" y1="1792.93" x2="189.028" y2="1814.67" gradientUnits="userSpaceOnUse">
<stop stop-color="#007E1C"/>
<stop offset="0.466667" stop-color="#54FF7A"/>
<stop offset="1" stop-color="#005914"/>
</linearGradient>
<linearGradient id="paint33_linear_304_468" x1="237.19" y1="1834.07" x2="200.041" y2="1780.71" gradientUnits="userSpaceOnUse">
<stop stop-color="#00FF38"/>
<stop offset="1" stop-color="#008D1F"/>
</linearGradient>
<linearGradient id="paint34_linear_304_468" x1="265.966" y1="1819.19" x2="249.189" y2="1779.72" gradientUnits="userSpaceOnUse">
<stop stop-color="#038700"/>
<stop offset="1" stop-color="white" stop-opacity="0"/>
</linearGradient>
<linearGradient id="paint35_linear_304_468" x1="313.487" y1="1944.78" x2="224.387" y2="2024.41" gradientUnits="userSpaceOnUse">
<stop stop-color="white"/>
<stop offset="0.763542" stop-color="#A30000"/>
</linearGradient>
<linearGradient id="paint36_linear_304_468" x1="187.784" y1="1819.12" x2="189.345" y2="1753.6" gradientUnits="userSpaceOnUse">
<stop stop-color="#FF8181"/>
<stop offset="1" stop-color="#BC0000"/>
</linearGradient>
<linearGradient id="paint37_linear_304_468" x1="-0.599544" y1="1779.83" x2="286.525" y2="1986.3" gradientUnits="userSpaceOnUse">
<stop stop-color="#FF0000"/>
<stop offset="1" stop-color="#FFAEAE"/>
</linearGradient>
<linearGradient id="paint38_linear_304_468" x1="8.1333" y1="1749.25" x2="61.8551" y2="1911.99" gradientUnits="userSpaceOnUse">
<stop stop-color="#FF9292"/>
<stop offset="1" stop-color="white" stop-opacity="0"/>
</linearGradient>
<linearGradient id="paint39_linear_304_468" x1="2175.1" y1="1898.55" x2="2325.29" y2="2059.31" gradientUnits="userSpaceOnUse">
<stop stop-color="#FF002E"/>
<stop offset="0.503125" stop-color="#AB003E"/>
<stop offset="1" stop-color="#FF005C"/>
</linearGradient>
<linearGradient id="paint40_linear_304_468" x1="2174.76" y1="1898.19" x2="2325.64" y2="2059.67" gradientUnits="userSpaceOnUse">
<stop stop-color="#FF004D"/>
<stop offset="1" stop-color="#AC003E"/>
</linearGradient>
<linearGradient id="paint41_linear_304_468" x1="2315.07" y1="1881.37" x2="2290.4" y2="1972.16" gradientUnits="userSpaceOnUse">
<stop/>
<stop offset="0.0001" stop-color="#850038" stop-opacity="0.66"/>
<stop offset="1" stop-color="white" stop-opacity="0"/>
</linearGradient>
<linearGradient id="paint42_linear_304_468" x1="2156.59" y1="1792.72" x2="2172.99" y2="1891.37" gradientUnits="userSpaceOnUse">
<stop stop-color="#00FF38"/>
<stop offset="0.560417" stop-color="#00B127"/>
<stop offset="1" stop-color="#00FF38"/>
</linearGradient>
<linearGradient id="paint43_linear_304_468" x1="2180.36" y1="1827.27" x2="2165.25" y2="1886.54" gradientUnits="userSpaceOnUse">
<stop stop-color="#00A023"/>
<stop offset="1" stop-color="#007119" stop-opacity="0"/>
</linearGradient>
<linearGradient id="paint44_linear_304_468" x1="2191.3" y1="1838.26" x2="2154.02" y2="1842.29" gradientUnits="userSpaceOnUse">
<stop stop-color="#43FF9A"/>
<stop offset="1" stop-color="white" stop-opacity="0"/>
</linearGradient>
<linearGradient id="paint45_linear_304_468" x1="2116.3" y1="1901.77" x2="2160.8" y2="1902.2" gradientUnits="userSpaceOnUse">
<stop stop-color="#00FF38"/>
<stop offset="0.560417" stop-color="#00B127"/>
<stop offset="1" stop-color="#00FF38"/>
</linearGradient>
<linearGradient id="paint46_linear_304_468" x1="2116.3" y1="1901.8" x2="2160.84" y2="1902.23" gradientUnits="userSpaceOnUse">
<stop stop-color="#00A023"/>
<stop offset="1" stop-color="#007119" stop-opacity="0"/>
</linearGradient>
<linearGradient id="paint47_linear_304_468" x1="2141.74" y1="1891.4" x2="2145.43" y2="1907.8" gradientUnits="userSpaceOnUse">
<stop stop-color="#9FFFBF"/>
<stop offset="1" stop-color="white" stop-opacity="0"/>
</linearGradient>
<linearGradient id="paint48_linear_304_468" x1="2173.25" y1="1975.44" x2="2173.25" y2="1992.44" gradientUnits="userSpaceOnUse">
<stop stop-color="white"/>
<stop offset="1" stop-color="white"/>
</linearGradient>
<linearGradient id="paint49_linear_304_468" x1="2248.51" y1="1905.12" x2="2248.51" y2="1922.12" gradientUnits="userSpaceOnUse">
<stop stop-color="white"/>
<stop offset="1" stop-color="white"/>
</linearGradient>
<linearGradient id="paint50_linear_304_468" x1="2236.5" y1="1966.97" x2="2236.5" y2="1983.97" gradientUnits="userSpaceOnUse">
<stop stop-color="white"/>
<stop offset="1" stop-color="white"/>
</linearGradient>
<linearGradient id="paint51_linear_304_468" x1="2304.49" y1="1965.04" x2="2304.49" y2="1982.04" gradientUnits="userSpaceOnUse">
<stop stop-color="white"/>
<stop offset="1" stop-color="white"/>
</linearGradient>
<linearGradient id="paint52_linear_304_468" x1="2375.13" y1="-29.7074" x2="2138.85" y2="156.817" gradientUnits="userSpaceOnUse">
<stop stop-color="#FFE5A3"/>
<stop offset="0.628125" stop-color="#FFD705"/>
<stop offset="1" stop-color="#FFBA08"/>
</linearGradient>
<linearGradient id="paint53_linear_304_468" x1="2405.83" y1="43.0308" x2="2077.62" y2="-69.3628" gradientUnits="userSpaceOnUse">
<stop stop-color="#F3AF00"/>
<stop offset="1" stop-color="#FFD600"/>
</linearGradient>
<linearGradient id="paint54_linear_304_468" x1="1968.81" y1="1383.55" x2="2068.73" y2="1424.68" gradientUnits="userSpaceOnUse">
<stop stop-color="#00FF38"/>
<stop offset="0.560417" stop-color="#54FF7A"/>
<stop offset="1" stop-color="#00FF38"/>
</linearGradient>
<linearGradient id="paint55_linear_304_468" x1="2043.79" y1="1383.24" x2="2048.51" y2="1437.2" gradientUnits="userSpaceOnUse">
<stop stop-color="#00E232"/>
<stop offset="1" stop-color="#008D1F"/>
</linearGradient>
<linearGradient id="paint56_linear_304_468" x1="2014.61" y1="1382.25" x2="2010.88" y2="1418.04" gradientUnits="userSpaceOnUse">
<stop stop-color="#038700"/>
<stop offset="1" stop-color="white" stop-opacity="0"/>
</linearGradient>
<linearGradient id="paint57_linear_304_468" x1="2079.76" y1="1438.54" x2="2374.87" y2="1379.13" gradientUnits="userSpaceOnUse">
<stop stop-color="#FFE5A3"/>
<stop offset="0.628125" stop-color="#FFD705"/>
<stop offset="1" stop-color="#FFBA08"/>
</linearGradient>
<linearGradient id="paint58_linear_304_468" x1="2085.3" y1="1359.78" x2="2327.12" y2="1608.54" gradientUnits="userSpaceOnUse">
<stop stop-color="#F3AF00"/>
<stop offset="1" stop-color="#FFD600"/>
</linearGradient>
<linearGradient id="paint59_linear_304_468" x1="-41.0198" y1="1019.42" x2="128.197" y2="1163.89" gradientUnits="userSpaceOnUse">
<stop stop-color="#FFE5A3"/>
<stop offset="0.628125" stop-color="#FFD705"/>
<stop offset="1" stop-color="#FFBA08"/>
</linearGradient>
<linearGradient id="paint60_linear_304_468" x1="7.49733" y1="986.462" x2="-26.28" y2="1241.64" gradientUnits="userSpaceOnUse">
<stop stop-color="#F3AF00"/>
<stop offset="1" stop-color="#FFD600"/>
</linearGradient>
<linearGradient id="paint61_linear_304_468" x1="185.461" y1="60.4813" x2="-50.736" y2="127.31" gradientUnits="userSpaceOnUse">
<stop stop-color="#FF002E"/>
<stop offset="0.503125" stop-color="#AB003E"/>
<stop offset="1" stop-color="#FF005C"/>
</linearGradient>
<linearGradient id="paint62_linear_304_468" x1="185.998" y1="60.3294" x2="-51.2728" y2="127.462" gradientUnits="userSpaceOnUse">
<stop stop-color="#FF004D"/>
<stop offset="1" stop-color="#AC003E"/>
</linearGradient>
<linearGradient id="paint63_linear_304_468" x1="130.479" y1="206.315" x2="54.3061" y2="135.711" gradientUnits="userSpaceOnUse">
<stop/>
<stop offset="0.0001" stop-color="#850038" stop-opacity="0.66"/>
<stop offset="1" stop-color="white" stop-opacity="0"/>
</linearGradient>
<linearGradient id="paint64_linear_304_468" x1="299.633" y1="95.2772" x2="194.114" y2="60.5868" gradientUnits="userSpaceOnUse">
<stop stop-color="#00FF38"/>
<stop offset="0.560417" stop-color="#00B127"/>
<stop offset="1" stop-color="#00FF38"/>
</linearGradient>
<linearGradient id="paint65_linear_304_468" x1="253.249" y1="101.298" x2="203" y2="56.1651" gradientUnits="userSpaceOnUse">
<stop stop-color="#00A023"/>
<stop offset="1" stop-color="#007119" stop-opacity="0"/>
</linearGradient>
<linearGradient id="paint66_linear_304_468" x1="236.757" y1="106.535" x2="251.39" y2="67.7531" gradientUnits="userSpaceOnUse">
<stop stop-color="#43FF9A"/>
<stop offset="1" stop-color="white" stop-opacity="0"/>
</linearGradient>
<linearGradient id="paint67_linear_304_468" x1="212.518" y1="1.21292" x2="189.844" y2="44.9654" gradientUnits="userSpaceOnUse">
<stop stop-color="#00FF38"/>
<stop offset="0.560417" stop-color="#00B127"/>
<stop offset="1" stop-color="#00FF38"/>
</linearGradient>
<linearGradient id="paint68_linear_304_468" x1="212.485" y1="1.19595" x2="189.793" y2="44.9833" gradientUnits="userSpaceOnUse">
<stop stop-color="#00A023"/>
<stop offset="1" stop-color="#007119" stop-opacity="0"/>
</linearGradient>
<linearGradient id="paint69_linear_304_468" x1="209.685" y1="31.3433" x2="191.634" y2="26.5246" gradientUnits="userSpaceOnUse">
<stop stop-color="#9FFFBF"/>
<stop offset="1" stop-color="white" stop-opacity="0"/>
</linearGradient>
<linearGradient id="paint70_linear_304_468" x1="118.454" y1="15.2856" x2="118.454" y2="34.2537" gradientUnits="userSpaceOnUse">
<stop stop-color="white"/>
<stop offset="1" stop-color="white"/>
</linearGradient>
<linearGradient id="paint71_linear_304_468" x1="149.289" y1="124.268" x2="149.289" y2="143.236" gradientUnits="userSpaceOnUse">
<stop stop-color="white"/>
<stop offset="1" stop-color="white"/>
</linearGradient>
<linearGradient id="paint72_linear_304_468" x1="94.2972" y1="81.5454" x2="94.2972" y2="100.514" gradientUnits="userSpaceOnUse">
<stop stop-color="white"/>
<stop offset="1" stop-color="white"/>
</linearGradient>
<linearGradient id="paint73_linear_304_468" x1="12.7017" y1="104.632" x2="12.7017" y2="123.6" gradientUnits="userSpaceOnUse">
<stop stop-color="white"/>
<stop offset="1" stop-color="white"/>
</linearGradient>
<linearGradient id="paint74_linear_304_468" x1="30.4165" y1="40.1948" x2="30.4165" y2="59.1629" gradientUnits="userSpaceOnUse">
<stop stop-color="white"/>
<stop offset="1" stop-color="white"/>
</linearGradient>
<linearGradient id="paint75_linear_304_468" x1="61.252" y1="149.177" x2="61.252" y2="168.145" gradientUnits="userSpaceOnUse">
<stop stop-color="white"/>
<stop offset="1" stop-color="white"/>
</linearGradient>
<linearGradient id="paint76_linear_304_468" x1="53.1673" y1="375.824" x2="40.9987" y2="486.32" gradientUnits="userSpaceOnUse">
<stop stop-color="#007E1C"/>
<stop offset="0.466667" stop-color="#54FF7A"/>
<stop offset="1" stop-color="#005914"/>
</linearGradient>
<linearGradient id="paint77_linear_304_468" x1="78.4393" y1="450.25" x2="29.4046" y2="471.297" gradientUnits="userSpaceOnUse">
<stop stop-color="#00FF38"/>
<stop offset="1" stop-color="#008D1F"/>
</linearGradient>
<linearGradient id="paint78_linear_304_468" x1="69.6499" y1="420.964" x2="34.9408" y2="428.926" gradientUnits="userSpaceOnUse">
<stop stop-color="#038700"/>
<stop offset="1" stop-color="white" stop-opacity="0"/>
</linearGradient>
<linearGradient id="paint79_linear_304_468" x1="181.647" y1="410.945" x2="237.151" y2="510.196" gradientUnits="userSpaceOnUse">
<stop stop-color="white"/>
<stop offset="0.763542" stop-color="#A30000"/>
</linearGradient>
<linearGradient id="paint80_linear_304_468" x1="59.4214" y1="490.193" x2="2.96576" y2="480.555" gradientUnits="userSpaceOnUse">
<stop stop-color="#FF8181"/>
<stop offset="1" stop-color="#BC0000"/>
</linearGradient>
<linearGradient id="paint81_linear_304_468" x1="1.80594" y1="647.011" x2="225.036" y2="459.618" gradientUnits="userSpaceOnUse">
<stop stop-color="#FF0000"/>
<stop offset="1" stop-color="#FFAEAE"/>
</linearGradient>
<linearGradient id="paint82_linear_304_468" x1="-22.8213" y1="631.468" x2="118.903" y2="609.835" gradientUnits="userSpaceOnUse">
<stop stop-color="#FF9292"/>
<stop offset="1" stop-color="white" stop-opacity="0"/>
</linearGradient>
<clipPath id="clip0_304_468">
<rect width="2301" height="1980" fill="white"/>
</clipPath>
</defs>
</svg>
