<svg width="1186" height="221" viewBox="0 0 1186 221" fill="none" xmlns="http://www.w3.org/2000/svg">
<path fill-rule="evenodd" clip-rule="evenodd" d="M0 221L49.4167 202.583C98.8333 184.167 197.667 147.333 296.5 124.313C395.333 101.292 494.167 92.0833 593 115.104C691.833 138.125 790.667 193.375 889.5 207.188C988.333 221 1087.17 193.375 1136.58 179.563L1186 165.75V1.90735e-06H1136.58C1087.17 1.90735e-06 988.333 1.90735e-06 889.5 1.90735e-06C790.667 1.90735e-06 691.833 1.90735e-06 593 1.90735e-06C494.167 1.90735e-06 395.333 1.90735e-06 296.5 1.90735e-06C197.667 1.90735e-06 98.8333 1.90735e-06 49.4167 1.90735e-06H0V221Z" fill="#00790a" fill-opacity="0.400"/>
</svg>
